<svg xmlns="http://www.w3.org/2000/svg" viewBox="0 0 24 30" fill="none" x="0px" y="0px"><path fill-rule="evenodd" clip-rule="evenodd" d="M7 4.5C6.72386 4.5 6.5 4.72386 6.5 5C6.5 5.27614 6.72386 5.5 7 5.5H17C17.2761 5.5 17.5 5.27614 17.5 5C17.5 4.72386 17.2761 4.5 17 4.5H7ZM5.5 7C5.5 6.72386 5.72386 6.5 6 6.5H18C18.2761 6.5 18.5 6.72386 18.5 7C18.5 7.27614 18.2761 7.5 18 7.5H6C5.72386 7.5 5.5 7.27614 5.5 7ZM6 8.5C5.17157 8.5 4.5 9.17157 4.5 10V18C4.5 18.8284 5.17157 19.5 6 19.5H18C18.8284 19.5 19.5 18.8284 19.5 18V10C19.5 9.17157 18.8284 8.5 18 8.5H6ZM5.5 10C5.5 9.72386 5.72386 9.5 6 9.5H18C18.2761 9.5 18.5 9.72386 18.5 10V18C18.5 18.2761 18.2761 18.5 18 18.5H6C5.72386 18.5 5.5 18.2761 5.5 18V10ZM9.78125 12.118C9.78125 11.7463 10.1724 11.5046 10.5049 11.6708L14.2688 13.5528C14.6373 13.737 14.6373 14.263 14.2688 14.4472L10.5049 16.3292C10.1724 16.4954 9.78125 16.2537 9.78125 15.882V12.118ZM10.9521 10.7764C9.95472 10.2777 8.78125 11.003 8.78125 12.118V15.882C8.78125 16.997 9.95472 17.7223 10.9521 17.2236L14.716 15.3416C15.8216 14.7889 15.8216 13.2111 14.716 12.6584L10.9521 10.7764Z" fill="black"/><text x="0" y="39" fill="#000000" font-size="5px" font-weight="bold" font-family="'Helvetica Neue', Helvetica, Arial-Unicode, Arial, Sans-serif">Created by Tadu Puasandi</text><text x="0" y="44" fill="#000000" font-size="5px" font-weight="bold" font-family="'Helvetica Neue', Helvetica, Arial-Unicode, Arial, Sans-serif">from the Noun Project</text></svg>